<svg xmlns="http://www.w3.org/2000/svg" viewBox="0 0 24 24" role="img"><title>GitLab</title><path fill="#E24329" d="m23.6 9.593-.033-.086L20.3.495a.851.851 0 0 0-.336-.405.875.875 0 0 0-.999.054.875.875 0 0 0-.29.44l-2.207 6.751H7.538L5.33.584a.86.86 0 0 0-.29-.44.875.875 0 0 0-.999-.054.86.86 0 0 0-.336.405L.434 9.502.4 9.588a6.097 6.097 0 0 0 2.022 7.049l.011.008.03.022 5.0 3.74 2.473 1.873 1.508 1.139a1.008 1.008 0 0 0 1.221 0l1.508-1.139 2.473-1.873 5.03-3.762.013-.01A6.103 6.103 0 0 0 23.6 9.593Z"/><path fill="#FC6D26" d="m23.6 9.593-.033-.086a11.082 11.082 0 0 0-4.42 1.985L12 16.9c2.5 1.892 4.675 3.534 4.675 3.534l5.03-3.762.013-.01A6.103 6.103 0 0 0 23.6 9.593Z"/><path fill="#FCA326" d="m7.325 20.434 2.473 1.873 1.508 1.139a1.008 1.008 0 0 0 1.221 0l1.508-1.139 2.473-1.873S14.51 18.787 12 16.9c-2.51 1.887-4.675 3.534-4.675 3.534Z"/><path fill="#FC6D26" d="M4.852 11.492A11.085 11.085 0 0 0 .433 9.502L.4 9.588a6.097 6.097 0 0 0 2.022 7.049l.011.008.03.022 5.0 3.74S9.5 18.788 12 16.9l-7.148-5.408Z"/></svg>
